<svg xmlns="http://www.w3.org/2000/svg" viewBox="0 0 200 260" fill="none">
  <!-- Placeholder Fox - Pose Confiant (bras croises) -->
  <!-- Socle holographique -->
  <ellipse cx="100" cy="245" rx="60" ry="12" fill="#3DFF70" opacity="0.15"/>
  <ellipse cx="100" cy="245" rx="40" ry="8" fill="#3DFF70" opacity="0.25"/>

  <!-- Corps (hoodie) -->
  <path d="M65 140 L65 210 Q65 230 85 230 L115 230 Q135 230 135 210 L135 140 Z"
        stroke="#3DFF70" stroke-width="1.5" fill="none" opacity="0.8"/>

  <!-- Bras croises -->
  <path d="M65 165 L55 175 Q50 180 55 185 L90 175"
        stroke="#3DFF70" stroke-width="1.5" fill="none" opacity="0.6"/>
  <path d="M135 165 L145 175 Q150 180 145 185 L110 175"
        stroke="#3DFF70" stroke-width="1.5" fill="none" opacity="0.6"/>
  <line x1="70" y1="178" x2="130" y2="178" stroke="#3DFF70" stroke-width="1.5" opacity="0.5"/>

  <!-- Tete -->
  <path d="M70 80 Q70 55 100 50 Q130 55 130 80 L130 120 Q130 140 100 142 Q70 140 70 120 Z"
        stroke="#3DFF70" stroke-width="1.5" fill="none"/>

  <!-- Oreilles pointues -->
  <path d="M72 80 L58 35 L82 65" stroke="#3DFF70" stroke-width="1.5" fill="none"/>
  <path d="M128 80 L142 35 L118 65" stroke="#3DFF70" stroke-width="1.5" fill="none"/>

  <!-- Yeux (pleins neon) -->
  <circle cx="85" cy="95" r="5" fill="#3DFF70"/>
  <circle cx="115" cy="95" r="5" fill="#3DFF70"/>

  <!-- Museau -->
  <path d="M93 110 L100 115 L107 110" stroke="#3DFF70" stroke-width="1.5" fill="none"/>
  <circle cx="100" cy="108" r="2" fill="#3DFF70"/>

  <!-- Glow effect -->
  <circle cx="85" cy="95" r="8" fill="#3DFF70" opacity="0.1"/>
  <circle cx="115" cy="95" r="8" fill="#3DFF70" opacity="0.1"/>
</svg>
